PathFileType  4	(X/Y/Z) C:\simtk\uwmodels\fbknee\data\invivovalid3\exp\aclc01\Files_W_HJCs
DataRate	CameraRate	NumFrames	NumMarkers	Units	OrigDataRate	OrigDataStartFrame	OrigNumFrames
  200.0      200.0       4         52 mm      200.0         603      1204
Frame#	Time            R.Shoulder                       R.Clavicle                       R.Bicep                          R.Elbow                          R.Forearm                        R.Wrist                          L.Shoulder                       L.Clavicle                       L.Scapula                        L.Bicep                          L.Elbow                          L.Forearm                        L.Wrist                          R.ASIS                           R.PSIS                           S2                               L.PSIS                           L.ASIS                           R.TH1                            R.TH2                            R.TH3                            R.Knee                           R.SH1                            R.SH2                            R.SH3                            R.SH4                            R.Ankle                          R.Heel                           R.MT5                            L.TH1                            L.TH2                            L.TH3                            L.TH4                            L.Knee                           L.SH1                            L.SH2                            L.SH3                            L.Ankle                          L.Heel                           L.MT5                            R.Melb                           R.GTR                            R.Mkn                            R.Man                            R.MT0                            L.Melb                           L.GTR                            L.Mkn                            L.Man                            L.MT0                            R_HJC                            L_HJC                  
                     X1         Y1         Z1         X2         Y2         Z2         X3         Y3         Z3         X4         Y4         Z4         X5         Y5         Z5         X6         Y6         Z6         X7         Y7         Z7         X8         Y8         Z8         X9         Y9         Z9         X10         Y10         Z10         X11         Y11         Z11         X12         Y12         Z12         X13         Y13         Z13         X14         Y14         Z14         X15         Y15         Z15         X16         Y16         Z16         X17         Y17         Z17         X18         Y18         Z18         X19         Y19         Z19         X20         Y20         Z20         X21         Y21         Z21         X22         Y22         Z22         X23         Y23         Z23         X24         Y24         Z24         X25         Y25         Z25         X26         Y26         Z26         X27         Y27         Z27         X28         Y28         Z28         X29         Y29         Z29         X30         Y30         Z30         X31         Y31         Z31         X32         Y32         Z32         X33         Y33         Z33         X34         Y34         Z34         X35         Y35         Z35         X36         Y36         Z36         X37         Y37         Z37         X38         Y38         Z38         X39         Y39         Z39         X40         Y40         Z40         X41         Y41         Z41         X42         Y42         Z42         X43         Y43         Z43         X44         Y44         Z44         X45         Y45         Z45         X46         Y46         Z46         X47         Y47         Z47         X48         Y48         Z48         X49         Y49         Z49         X50         Y50         Z50         X51         Y51         Z51         X52         Y52         Z52         

	603	3.01000	533.630	1930.494	1605.616	613.105	2081.039	1600.584	584.878	1882.999	1397.324	467.606	1851.589	1305.960	549.808	1763.082	1247.267	502.919	1731.420	1132.476	565.322	2307.027	1610.304	622.862	2137.574	1601.515	441.011	2214.072	1576.419	610.668	2354.000	1454.703	514.809	2412.194	1317.723	580.234	2480.145	1254.836	544.840	2503.819	1136.379	657.137	1987.078	1151.673	425.310	2067.703	1227.094	418.031	2120.209	1221.417	431.993	2174.311	1228.343	655.691	2242.285	1140.996	594.733	1906.270	945.203	444.627	1935.526	958.435	441.238	1942.456	883.974	494.484	1913.122	736.505	518.286	1882.469	603.942	519.000	1887.866	529.436	409.874	1928.798	610.172	407.607	1924.421	533.815	481.852	1893.879	333.151	416.000	1943.641	299.427	601.492	1863.865	276.053	598.681	2312.316	907.924	602.183	2299.042	826.587	450.989	2306.105	908.197	445.638	2300.658	831.409	497.403	2312.704	727.193	539.814	2334.180	641.557	428.363	2320.009	642.267	423.410	2335.818	566.237	505.320	2357.408	338.178	421.579	2325.623	296.983	604.854	2384.116	278.622	540.315	1922.480	1274.144	535.950	1892.306	1094.176	510.396	2077.379	693.830	506.308	1984.714	337.106	618.097	1978.483	279.223	586.454	2320.767	1271.799	523.998	2324.367	1111.849	495.476	2146.540	694.180	510.924	2261.808	334.048	624.136	2261.502	279.458	559.226	2015.792	1101.758	551.955	2213.925	1080.962
	604	3.01500	533.841	1930.516	1605.502	613.105	2081.039	1600.584	584.878	1882.999	1397.324	467.578	1851.030	1305.105	549.808	1763.082	1247.267	502.908	1731.207	1132.435	565.322	2307.027	1610.304	622.942	2137.783	1601.609	440.994	2214.030	1576.455	610.668	2354.000	1454.703	514.404	2412.093	1317.756	580.403	2479.636	1254.463	544.473	2504.795	1136.380	657.137	1987.078	1151.673	425.310	2067.703	1227.094	418.031	2120.209	1221.417	431.993	2174.311	1228.343	655.893	2242.395	1141.047	594.733	1906.270	945.203	444.627	1935.526	958.435	441.238	1942.456	883.974	494.484	1912.959	736.519	518.272	1882.544	603.957	518.987	1887.489	529.591	409.805	1928.743	609.956	407.607	1924.421	533.815	481.852	1893.879	333.151	416.000	1943.641	299.427	601.226	1863.847	276.332	598.860	2312.286	907.973	602.183	2299.042	826.587	450.903	2306.029	908.211	445.638	2300.658	831.409	497.384	2312.731	727.165	539.875	2334.094	641.615	428.491	2319.834	642.335	423.410	2335.818	566.237	505.320	2357.408	338.178	421.689	2325.678	297.050	605.019	2384.034	278.684	540.315	1922.480	1274.144	535.950	1892.306	1094.176	510.396	2077.379	693.830	506.443	1984.804	337.120	618.097	1978.483	279.223	585.790	2320.684	1271.664	523.998	2324.367	1111.849	495.476	2146.540	694.180	510.924	2261.808	334.048	624.132	2261.474	279.316	559.272	2015.840	1101.742	552.040	2213.981	1081.015
	605	3.02000	533.841	1930.516	1605.502	613.105	2081.039	1600.584	584.630	1882.966	1397.055	467.578	1851.030	1305.105	549.739	1763.061	1247.049	502.919	1731.420	1132.476	565.322	2307.027	1610.304	622.876	2137.635	1601.584	441.011	2214.072	1576.419	610.554	2354.021	1454.697	514.499	2412.092	1317.682	580.286	2479.643	1254.542	544.473	2504.795	1136.380	657.137	1987.078	1151.673	425.310	2067.703	1227.094	418.031	2120.209	1221.417	431.993	2174.311	1228.343	655.542	2242.181	1140.911	594.733	1906.270	945.203	444.417	1935.051	958.416	441.238	1942.456	883.974	494.452	1913.005	736.469	518.307	1882.597	603.918	518.896	1887.699	529.521	409.848	1929.170	609.720	407.607	1924.421	533.815	481.852	1893.879	333.151	416.000	1943.641	299.427	601.226	1863.847	276.332	598.860	2312.286	907.973	601.940	2298.920	826.538	450.989	2306.105	908.197	445.638	2300.658	831.409	497.384	2312.731	727.165	539.607	2334.107	641.708	428.363	2320.009	642.267	423.356	2335.818	566.109	505.320	2357.408	338.178	421.579	2325.623	296.983	604.603	2384.248	278.519	540.114	1922.721	1274.024	535.950	1892.306	1094.176	510.396	2077.379	693.830	506.443	1984.804	337.120	618.097	1978.483	279.223	586.454	2320.767	1271.799	523.998	2324.367	1111.849	495.476	2146.540	694.180	510.979	2261.840	333.939	624.132	2261.474	279.316	559.183	2015.738	1101.772	551.881	2213.861	1080.895
	606	3.02500	533.841	1930.516	1605.502	613.138	2081.078	1600.525	584.878	1882.999	1397.324	467.565	1851.858	1306.075	549.739	1763.061	1247.049	502.919	1731.420	1132.476	565.322	2307.027	1610.304	622.876	2137.635	1601.584	441.011	2214.072	1576.419	610.668	2354.000	1454.703	514.602	2412.195	1317.883	580.403	2479.636	1254.463	544.678	2504.277	1136.313	657.137	1987.078	1151.673	425.310	2067.703	1227.094	418.031	2120.209	1221.417	431.993	2174.311	1228.343	655.691	2242.285	1140.996	594.733	1906.270	945.203	444.459	1935.165	958.491	441.238	1942.456	883.974	494.517	1913.076	736.554	518.082	1882.424	603.989	519.000	1887.866	529.436	409.875	1929.167	609.953	407.487	1924.583	534.199	481.852	1893.879	333.151	416.000	1943.641	299.427	601.492	1863.865	276.053	598.784	2312.306	907.973	602.264	2298.890	826.483	450.989	2306.105	908.197	445.638	2300.658	831.409	497.384	2312.731	727.165	539.821	2334.095	641.650	428.363	2320.009	642.267	423.410	2335.818	566.237	505.320	2357.408	338.178	421.579	2325.623	296.983	604.830	2384.169	278.569	540.315	1922.480	1274.144	536.099	1892.462	1094.213	510.396	2077.379	693.830	506.443	1984.804	337.120	618.097	1978.483	279.223	585.790	2320.684	1271.664	523.998	2324.367	1111.849	495.476	2146.540	694.180	511.034	2261.873	333.830	624.132	2261.474	279.316	559.226	2015.792	1101.758	551.955	2213.925	1080.962
